<?xml version="1.0" encoding="UTF-8" standalone="no"?>
<!-- Created with Inkscape (http://www.inkscape.org/) -->

<svg
   width="161"
   height="132.10001"
   viewBox="0 0 42.597913 34.951454"
   version="1.1"
   id="svg1"
   inkscape:version="1.3.2 (091e20e, 2023-11-25, custom)"
   sodipodi:docname="Logo.svg"
   xmlns:inkscape="http://www.inkscape.org/namespaces/inkscape"
   xmlns:sodipodi="http://sodipodi.sourceforge.net/DTD/sodipodi-0.dtd"
   xmlns="http://www.w3.org/2000/svg"
   xmlns:svg="http://www.w3.org/2000/svg">
  <sodipodi:namedview
     id="namedview1"
     pagecolor="#ffffff"
     bordercolor="#666666"
     borderopacity="1.0"
     inkscape:showpageshadow="2"
     inkscape:pageopacity="0.0"
     inkscape:pagecheckerboard="0"
     inkscape:deskcolor="#d1d1d1"
     inkscape:document-units="mm"
     inkscape:zoom="0.5"
     inkscape:cx="288"
     inkscape:cy="13"
     inkscape:window-width="1366"
     inkscape:window-height="697"
     inkscape:window-x="-8"
     inkscape:window-y="-8"
     inkscape:window-maximized="1"
     inkscape:current-layer="layer1" />
  <defs
     id="defs1" />
  <g
     inkscape:label="Layer 1"
     inkscape:groupmode="layer"
     id="layer1">
    <path
       sodipodi:type="spiral"
       style="fill:#ffff41;fill-opacity:1;fill-rule:evenodd;stroke:#000000;stroke-width:0.575627;stroke-dasharray:none;stroke-opacity:1"
       id="path4"
       sodipodi:cx="8.9958334"
       sodipodi:cy="22.225"
       sodipodi:expansion="1"
       sodipodi:revolution="10.413165"
       sodipodi:radius="48.492058"
       sodipodi:argument="-17.802359"
       sodipodi:t0="0"
       d="m 8.9958334,22.225 c 0.3502272,0.606611 -0.6449097,0.77138 -1.0082273,0.582101 -0.9845682,-0.512935 -0.7935677,-1.898909 -0.155974,-2.598555 1.1405057,-1.251503 3.1368939,-0.898987 4.1888829,0.270153 1.543837,1.715758 1.012391,4.393429 -0.696279,5.77921 -2.2773884,1.84703 -5.6567799,1.129489 -7.3695389,-1.122405 -2.1553324,-2.83378 -1.2485576,-6.923436 1.5485325,-8.959867 3.387651,-2.466392 8.1919634,-1.368778 10.5501944,1.974659 2.779095,3.940125 1.489723,9.46166 -2.400786,12.140522 C 9.1608918,33.383671 2.9205011,31.90197 -0.07821196,27.463906 -3.4855403,22.421095 -1.8111302,15.460744 3.1748271,12.142728 8.7683177,8.4204152 16.449413,10.287798 20.086333,15.821893 24.124004,21.965788 22.063457,30.368204 15.981041,34.323728 9.2869474,38.677039 0.16277575,36.423185 -4.111121,29.792309 -8.7802913,22.548172 -6.3330223,12.701906 0.84642463,8.1098187 8.6404822,3.1246165 19.20911,5.7653861 24.119242,13.493491 29.420615,21.837373 26.586277,33.128578 18.309443,38.356637 9.4158153,43.974294 -2.5981426,40.946331 -8.1440301,32.120711 -14.078064,22.677401 -10.856433,9.940544 -1.4819779,4.0769097 8.5109613,-2.1735803 21.970839,1.2417571 28.152151,11.165088 34.719163,21.707612 31.110087,35.890614 20.637846,42.389546 9.5457758,49.273135 -5.360438,45.470295 -12.176939,34.449114 -19.377154,22.807529 -15.380526,7.1780276 -3.8103804,0.04400062 8.3806906,-7.472882 24.733545,-3.2824468 32.18506,8.836686 40.018647,21.577219 35.634387,38.653485 22.966248,46.422455 9.6762737,54.572777 -8.1234523,49.994678 -16.209848,36.777516 -24.676934,22.938118 -19.904983,4.4148875 -6.1387829,-3.9889084 8.2500214,-12.772783 27.496796,-7.8069675 36.217969,6.5082835 45.318655,21.44648 40.158965,41.416834 25.294651,50.455364 9.8070753,59.87288 -10.886889,54.519306 -20.242757,39.105919 -29.977121,23.068975 -24.429656,1.6513723 -8.4671854,-8.0218175 8.1191152,-18.073046 30.260382,-12.331681 40.250879,4.179881 50.618985,21.31553 44.683715,44.180483 27.623053,54.488273 9.9380654,65.173271 -13.650596,59.044089 -24.275666,41.434321 -35.277568,23.200001 -28.954468,-1.1123862 -10.795588,-12.054727 7.9880568,-23.373543 33.024188,-16.85652 44.283788,1.8514785 55.919528,21.184442 49.208579,46.944332 29.951456,58.521182 10.06918,70.473856 -16.414484,63.568975 -28.308575,43.762724 -40.578191,23.331141 -33.479376,-3.8763113 -13.12399,-16.087636 7.8568946,-28.674201 35.788146,-21.381447 48.316697,-0.47692405 61.220219,21.053259 53.733523,49.708322 32.279858,62.554091 10.200382,75.774576 -19.178502,68.093935 -32.341484,46.091126 -40.897438,31.789274 -41.304592,13.62854 -33.522758,-1.0912828"
       transform="matrix(0.22430751,-0.29137662,0.29137662,0.22430751,8.736207,15.069649)" />
    <path
       sodipodi:type="spiral"
       style="fill:#ffff41;fill-opacity:1;fill-rule:evenodd;stroke:#000000;stroke-width:0.642013;stroke-dasharray:none"
       id="path7"
       sodipodi:cx="47.625"
       sodipodi:cy="15.345833"
       sodipodi:expansion="1"
       sodipodi:revolution="11.484989"
       sodipodi:radius="53.612099"
       sodipodi:argument="-19.111355"
       sodipodi:t0="0"
       d="m 47.625,15.345833 c 0.678216,-0.181727 0.579572,0.824563 0.302042,1.127239 -0.752089,0.820232 -2.044506,0.275714 -2.55652,-0.523155 -0.915873,-1.428989 -0.0566,-3.270536 1.348351,-3.985802 2.061823,-1.04968 4.516601,0.159596 5.415084,2.173549 1.197536,2.684282 -0.373983,5.770222 -2.998746,6.844365 -3.302996,1.351699 -7.027554,-0.587319 -8.273646,-3.823943 -1.509184,-3.919985 0.800026,-8.2869976 4.649139,-9.7029272 4.536047,-1.668624 9.547762,1.0123342 11.132209,5.4743362 1.829307,5.151558 -1.224377,10.809407 -6.299533,12.56149 C 44.576665,27.481813 38.27171,24.05475 36.352609,18.366255 34.199666,11.984624 38.000568,5.0318728 44.302535,2.9462022 51.298914,0.63071266 58.899968,4.805787 61.15187,11.721326 63.630233,19.332326 59.080735,27.58207 51.551549,29.999942 43.326022,32.641432 34.42729,27.717317 31.843652,19.574424 29.038837,10.734443 34.33772,1.1864856 43.094366,-1.5627543 52.548744,-4.5310543 62.746118,1.1427201 65.660826,10.513157 68.792741,20.581884 62.743977,31.428831 52.759718,34.508898 42.076678,37.804535 30.580031,31.380699 27.334695,20.782593 23.875248,9.4852724 30.674222,-2.6611855 41.886198,-6.0717109 53.797773,-9.6950449 66.594133,-2.5208741 70.169783,9.3049881 73.957068,21.830797 66.407652,35.277136 53.967887,39.017855 40.827864,42.969145 26.731477,35.044442 22.825739,21.990762 18.710395,8.236541 27.010421,-6.5099519 40.678029,-10.580667 55.046434,-14.860106 70.443083,-6.1847258 74.678739,8.0968191 79.122309,23.079397 70.071547,39.126248 55.176056,43.526811 39.579317,48.134544 22.882225,38.708376 18.316782,23.198931 13.544858,6.9880399 23.346454,-10.359328 39.46986,-15.089624 56.294895,-20.025765 74.292569,-9.8487221 79.187696,6.8886502 84.288076,24.327822 73.735569,42.975831 56.384225,48.035768 38.330923,53.300407 19.032554,42.372422 13.807826,24.4071 8.3789096,5.7396744 19.682387,-14.209078 38.261691,-19.598581 57.543235,-25.19179 78.14239,-13.512807 83.696653,5.6804813 89.454171,25.576139 77.399672,46.825716 57.592394,52.544725 37.082626,58.466565 15.182611,46.036539 9.2988691,25.615269 3.2126945,4.4913956 16.018256,-18.059074 37.053522,-24.107537 58.791497,-30.358057 81.992434,-17.176952 88.205609,4.4723123 94.620485,26.824386 81.063827,50.675804 58.800563,57.053681 35.834393,63.632923 11.332482,49.700706 4.7899125,26.823438 -1.9537033,3.2431754 12.35408,-21.90924 35.845353,-28.616494 60.039705,-35.524492 85.842635,-20.841137 92.714566,3.2641434 99.786954,28.072584 84.728021,54.526037 60.008732,61.562638 34.586205,68.799422 7.4822201,53.364906 0.28095597,28.031607 -7.1202317,1.9949969 8.6898719,-25.759529 34.637184,-33.12545 61.287875,-40.691047 89.692949,-24.505351 97.223522,2.0559744 104.95353,29.320746 88.392241,58.376375 61.216901,66.071594 35.184925,73.443048 7.1332138,59.193794 -2.6233913,34.036908"
       transform="matrix(-0.32897711,-0.02170107,0.02170107,-0.32897713,40.871382,24.184963)" />
  </g>
</svg>
